<!DOCTYPE svg PUBLIC "-//W3C//DTD SVG 1.1//EN" "http://www.w3.org/Graphics/SVG/1.1/DTD/svg11.dtd">
<!-- Uploaded to: SVG Repo, www.svgrepo.com, Transformed by: SVG Repo Mixer Tools -->
<svg width="136px" height="136px" viewBox="-0.48 -0.48 48.96 48.96" fill="none" xmlns="http://www.w3.org/2000/svg" stroke="#222020" transform="matrix(1, 0, 0, 1, 0, 0)rotate(0)">
<g id="SVGRepo_bgCarrier" stroke-width="0"/>
<g id="SVGRepo_tracerCarrier" stroke-linecap="round" stroke-linejoin="round" stroke="#CCCCCC" stroke-width="0.384"/>
<g id="SVGRepo_iconCarrier"> <rect x="12" y="34" width="24" height="8" fill="#070fed" stroke="#0d0c0c" stroke-width="1.488" stroke-linecap="round" stroke-linejoin="round"/> <path d="M29 34V20" stroke="#0d0c0c" stroke-width="1.488" stroke-linecap="round" stroke-linejoin="round"/> <path d="M22 34V26" stroke="#0d0c0c" stroke-width="1.488" stroke-linecap="round" stroke-linejoin="round"/> <path d="M12 25V34H36V25C36 25 41 22 41 17C41 12 37 10 32 10C32 8 29 4 24 4C19 4 16 8 16 10C12 10 7 12 7 17C7 22 12 25 12 25Z" stroke="#0d0c0c" stroke-width="1.488" stroke-linecap="round" stroke-linejoin="round"/> </g>
</svg>